<?xml version="1.0" encoding="UTF-8" standalone="no"?>
<!-- Created with Inkscape (http://www.inkscape.org/) -->

<svg
   xmlns:dc="http://purl.org/dc/elements/1.1/"
   xmlns:cc="http://creativecommons.org/ns#"
   xmlns:rdf="http://www.w3.org/1999/02/22-rdf-syntax-ns#"
   xmlns:svg="http://www.w3.org/2000/svg"
   xmlns="http://www.w3.org/2000/svg"
   version="1.1"
   width="69.745003"
   height="57.700001"
   id="svg2"
   xml:space="preserve"><metadata
     id="metadata8"><rdf:RDF><cc:Work
         rdf:about=""><dc:format>image/svg+xml</dc:format><dc:type
           rdf:resource="http://purl.org/dc/dcmitype/StillImage" /><dc:title></dc:title></cc:Work></rdf:RDF></metadata><defs
     id="defs6"><clipPath
       id="clipPath16"><path
         d="M 0,60 59,60 59,0 0,0 0,60 z"
         id="path18" /></clipPath></defs><g
     transform="matrix(1.25,0,0,-1.25,-0.85378178,74.696822)"
     id="g10"><g
       transform="translate(-0.50847458,5.8474576)"
       id="g12"><g
         clip-path="url(#clipPath16)"
         id="g14"><g
           transform="translate(50.5645,25.877)"
           id="g20"
           style="fill:#000000"><path
             d="m 0,0 c 0.138,0.231 0.273,0.464 0.403,0.702 1.421,2.612 2.171,5.574 2.171,8.566 0,9.905 -8.059,17.964 -17.965,17.964 l -4.29,0.001 -8.139,0 c -11.443,0 -20.753,-9.31 -20.753,-20.753 l 0,-23.582 5.309,0 0,23.582 c 0,8.517 6.928,15.444 15.444,15.444 l 2.83,0 0,-26.104 c -3.546,3.838 -8.618,6.247 -14.244,6.247 l 0,-5.309 c 7.767,0 14.086,-6.319 14.086,-14.085 l 0.158,0 5.151,0 0.158,0 0,39.251 4.29,-0.001 c 6.979,0 12.657,-5.677 12.657,-12.655 0,-2.109 -0.529,-4.194 -1.528,-6.032 -2.219,-4.087 -6.484,-6.625 -11.129,-6.625 l -0.315,0 0,-5.308 0.315,0 c 4.501,0 8.751,1.68 11.996,4.592 3.312,-3.372 3.708,-10.177 3.708,-13.222 l 5.31,0 C 5.623,-12.547 4.829,-4.511 0,0"
             id="path22"
             style="fill:#ffffff;fill-opacity:1;fill-rule:nonzero;stroke:none" /></g></g></g></g></svg>